<svg xmlns="http://www.w3.org/2000/svg" width="960" height="360" viewBox="0 0 960 360">
  <rect width="960" height="360" fill="#f8fafc"/>
  <line x1="80" y1="180" x2="880" y2="180" stroke="#1f2937" stroke-width="6"/>

  <circle cx="160" cy="180" r="18" fill="#0ea5e9"/>
  <circle cx="360" cy="180" r="18" fill="#22c55e"/>
  <circle cx="560" cy="180" r="18" fill="#f59e0b"/>
  <circle cx="760" cy="180" r="18" fill="#ef4444"/>

  <text x="160" y="135" text-anchor="middle" font-size="18" fill="#0c4a6e">Phase 0</text>
  <text x="160" y="110" text-anchor="middle" font-size="14" fill="#0c4a6e">Baseline Viewer</text>

  <text x="360" y="135" text-anchor="middle" font-size="18" fill="#14532d">Phase 1</text>
  <text x="360" y="110" text-anchor="middle" font-size="14" fill="#14532d">Mermaid + PDF</text>

  <text x="560" y="135" text-anchor="middle" font-size="18" fill="#78350f">Phase 2</text>
  <text x="560" y="110" text-anchor="middle" font-size="14" fill="#78350f">DOCX + Layout</text>

  <text x="760" y="135" text-anchor="middle" font-size="18" fill="#7f1d1d">Phase 3</text>
  <text x="760" y="110" text-anchor="middle" font-size="14" fill="#7f1d1d">Polish + Metrics</text>

  <rect x="95" y="220" width="130" height="48" rx="8" fill="#e0f2fe"/>
  <rect x="295" y="220" width="130" height="48" rx="8" fill="#dcfce7"/>
  <rect x="495" y="220" width="130" height="48" rx="8" fill="#fef3c7"/>
  <rect x="695" y="220" width="130" height="48" rx="8" fill="#fee2e2"/>

  <text x="160" y="250" text-anchor="middle" font-size="14" fill="#0c4a6e">Week 1-2</text>
  <text x="360" y="250" text-anchor="middle" font-size="14" fill="#14532d">Week 3-4</text>
  <text x="560" y="250" text-anchor="middle" font-size="14" fill="#78350f">Week 5-6</text>
  <text x="760" y="250" text-anchor="middle" font-size="14" fill="#7f1d1d">Week 7+</text>
</svg>
